PathFileType	4	(X/Y/Z)	D:\TRACE\spot_10-12-23\spot_arm_body_motion_3_3-platform.trc
DataRate	CameraRate	NumFrames	NumMarkers	Units	OrigDataRate	OrigDataStartFrame	OrigNumFrames
100.00	100.00	      54	5	mm	100.00	5251	      7000
Frame#	Time	Left_Front			Right_Front			Left_Aft			Right_Aft			Post			
		X1	Y1	Z1	X2	Y2	Z2	X3	Y3	Z3	X4	Y4	Z4	X5	Y5	Z5	

5251	52.500	-815.02264	63.25041	-625.69574	757.93237	67.35899	-618.55579	-731.62286	-34.87119	508.19238	685.76923	-37.87707	594.27728	-31.48118	825.50415	-878.88922	
5252	52.510	-815.11536	62.49294	-625.72675	757.79413	66.77074	-618.80634	-731.73987	-34.32354	508.00259	685.65155	-37.30286	594.09479	-31.80375	824.45782	-880.00488	
5253	52.520	-815.14563	61.71106	-626.01312	757.76306	65.76020	-619.08411	-731.72711	-33.88279	507.94629	685.43298	-36.49469	593.94788	-31.86694	823.58441	-881.37323	
5254	52.530	-815.30743	61.07270	-626.26105	757.83795	65.05600	-619.13733	-731.83124	-33.14043	507.88669	685.51624	-35.92823	593.82336	-31.57843	822.26990	-882.62177	
5255	52.540	-815.33765	60.28844	-626.47510	757.63715	64.28092	-619.44745	-731.77673	-32.62328	507.83188	685.45105	-35.18431	593.65570	-32.18570	821.37543	-883.96844	
5256	52.550	-815.39783	59.45158	-626.83630	757.50415	63.44715	-619.72858	-731.77124	-31.94600	507.55167	685.43530	-34.61717	593.59180	-32.02229	820.15710	-885.25848	
5257	52.560	-815.33081	58.67828	-626.96613	757.58398	62.73728	-620.05145	-731.96771	-31.42290	507.32889	684.97162	-33.99140	593.55762	-31.87482	819.01611	-886.22296	
5258	52.570	-815.38843	57.82699	-627.33984	757.54382	61.86250	-620.23132	-732.04346	-31.01178	507.26437	684.80273	-33.40897	593.62195	-32.19475	818.12598	-887.67310	
5259	52.580	-815.50299	57.01068	-627.57019	757.52277	61.06298	-620.59705	-732.09998	-30.45370	507.08798	684.40259	-32.92192	593.61798	-32.16106	816.75171	-888.72394	
5260	52.590	-815.34918	56.08588	-627.74207	757.53137	60.15083	-620.84973	-732.12701	-29.53159	506.94492	685.27533	-31.69123	592.85297	-32.06506	815.75464	-889.88275	
5261	52.600	-815.44714	55.24815	-628.07257	757.70355	59.40800	-620.97412	-732.08148	-28.96427	506.77563	685.18323	-31.07815	592.69519	-32.16221	814.48376	-890.75665	
5262	52.610	-815.60266	54.46059	-628.29816	757.47791	58.39176	-621.45630	-732.03302	-28.56821	506.88449	685.15778	-30.41417	592.67096	-31.97473	813.17078	-892.15491	
5263	52.620	-815.35004	53.53515	-628.58405	757.49573	57.73329	-621.75317	-732.05627	-27.95549	506.62598	685.14252	-29.57428	592.42633	-32.11988	811.83252	-893.13092	
5264	52.630	-815.61407	52.67072	-628.91699	757.61414	56.62359	-621.78937	-732.08704	-27.26407	506.53931	685.09058	-28.75889	592.23956	-32.28511	810.64136	-894.63141	
5265	52.640	-815.27704	51.44511	-629.33392	757.48370	55.65605	-622.19794	-732.20087	-26.54277	506.38828	685.12250	-28.19407	592.19977	-32.32303	809.43896	-895.85333	
5266	52.650	-815.28680	50.80593	-629.48383	757.45068	54.98933	-622.38586	-732.24512	-25.89790	505.92267	685.25238	-27.31208	591.98682	-32.14505	808.11816	-897.19287	
5267	52.660	-815.43420	49.89166	-630.01556	757.52960	54.05442	-622.76648	-732.25739	-25.29514	505.66629	685.23907	-26.38254	591.81207	-32.29158	806.90039	-898.76086	
5268	52.670	-815.26575	48.90590	-630.20807	757.72729	53.08248	-622.94202	-732.23505	-24.55654	505.56525	685.14661	-25.76137	591.62048	-32.22080	805.54395	-900.08252	
5269	52.680	-815.37726	47.76189	-630.31531	757.45361	52.05469	-623.37695	-732.36993	-23.88460	505.38303	685.08685	-25.14230	591.48029	-31.91805	804.06708	-901.62549	
5270	52.690	-815.46326	47.03321	-630.58191	757.45270	51.25212	-623.70526	-732.38965	-23.27023	505.16568	685.28809	-24.04274	591.19373	-32.18066	802.98529	-903.04767	
5271	52.700	-815.41016	46.19593	-631.00616	757.51752	50.46395	-623.96893	-732.24768	-22.59449	504.98032	685.28186	-23.40247	591.12622	-32.06340	801.45123	-904.37689	
5272	52.710	-815.42084	45.29646	-631.11731	757.50256	49.31960	-624.28284	-732.16760	-21.92570	504.79010	685.18359	-22.67280	590.96143	-32.24416	800.28992	-906.04962	
5273	52.720	-815.35803	44.15738	-631.50708	757.42188	48.49647	-624.43970	-732.15833	-21.31099	504.60718	685.35175	-21.87702	590.70288	-32.04620	798.99396	-907.25714	
5274	52.730	-815.38324	43.34182	-631.75488	757.77502	47.45542	-624.71906	-732.06427	-20.74694	504.49484	685.39563	-21.02052	590.48053	-32.06666	797.58765	-908.57068	
5275	52.740	-815.24414	42.33524	-632.01404	757.65314	46.65715	-624.95245	-732.17242	-20.00723	504.23764	685.38177	-20.41064	590.41559	-32.14003	796.55231	-909.99750	
5276	52.750	-814.86475	41.58784	-632.22186	757.78821	45.73503	-625.31708	-731.97119	-19.20576	504.03159	685.53748	-19.41237	590.07544	-31.73097	794.86938	-911.11475	
5277	52.760	-814.88086	41.30740	-632.45599	757.86456	45.02042	-625.56470	-731.89301	-18.69687	503.80219	685.65045	-18.70476	589.80963	-31.64216	793.27966	-912.39923	
5278	52.770	-815.05237	39.95320	-632.87457	757.97968	43.88648	-625.80737	-731.92365	-17.87252	503.59396	685.63611	-17.73295	589.74023	-32.05511	792.21332	-913.65338	
5279	52.780	-814.91962	37.66983	-633.20087	757.99835	42.34652	-626.18213	-731.74487	-17.14009	503.43146	685.78210	-16.83570	589.46246	-31.72679	790.77161	-915.07123	
5280	52.790	-814.79761	37.13750	-633.47308	758.25079	41.39470	-626.38910	-731.63409	-16.44238	503.20380	685.81976	-16.12742	589.41968	-30.98817	789.18219	-916.22809	
5281	52.800	-814.63165	36.70547	-633.85284	758.20251	40.80291	-626.71741	-731.55121	-16.07222	503.35764	685.80688	-15.59869	589.13074	-31.57537	787.86261	-917.86566	
5282	52.810	-814.72821	36.21363	-634.12384	758.11853	40.05706	-626.88733	-731.52576	-15.40969	503.27176	685.93207	-14.73531	589.06543	-31.19250	786.74866	-919.35944	
5283	52.820	-814.52301	35.40514	-634.20624	758.36169	38.99239	-627.05530	-731.37848	-14.66495	503.04858	685.95880	-14.03229	588.95953	-31.27244	785.87292	-920.69159	
5284	52.830	-814.51788	34.30732	-634.50275	758.45215	38.41273	-627.28632	-731.48621	-13.93302	502.59158	685.97559	-13.10937	588.79028	-31.52472	784.54987	-922.19153	
5285	52.840	-814.65460	33.41664	-634.67755	758.46985	37.84695	-627.49170	-731.47620	-13.39851	502.26566	686.07550	-12.52629	588.54510	-31.06773	783.08167	-923.36475	
5286	52.850	-814.62415	31.92664	-635.17249	758.23743	36.53107	-628.07227	-731.49377	-13.16176	502.17767	686.05298	-12.19946	588.35730	-31.34720	781.95660	-924.59900	
5287	52.860	-814.39557	31.32022	-635.24927	758.50977	35.33747	-627.98077	-731.32239	-12.39985	501.94867	686.24500	-11.24621	588.17865	-31.11974	780.54071	-925.86432	
5288	52.870	-814.23206	31.07104	-635.37372	758.52368	34.58735	-628.42914	-731.29950	-11.49972	501.65854	686.29492	-10.21369	588.10596	-31.07097	779.26160	-926.67322	
5289	52.880	-814.18610	29.97751	-635.78186	758.53833	34.24910	-628.68890	-731.16211	-10.64414	501.57361	686.15955	-9.55396	587.86078	-30.80885	778.03265	-927.64331	
5290	52.890	-814.15515	28.71544	-635.92261	758.52576	33.33781	-628.84070	-731.04205	-10.25686	501.41644	686.28455	-8.87052	587.57910	-30.99160	776.64850	-928.87592	
5291	52.900	-814.21735	27.70674	-636.34180	758.67755	32.01196	-629.19061	-731.03345	-9.79096	501.08307	686.30579	-8.21072	587.25568	-31.22871	775.41272	-930.05579	
5292	52.910	-814.14087	27.11324	-636.58533	758.59052	30.90341	-629.57599	-730.99994	-9.28225	500.91931	686.43744	-7.61298	587.08966	-30.79593	773.88092	-931.13983	
5293	52.920	-814.03705	26.00587	-636.56592	758.45355	30.29342	-629.79639	-731.02368	-8.51906	500.83627	686.19489	-6.73382	587.05426	-30.30505	772.80701	-932.34924	
5294	52.930	-814.07928	25.57206	-636.73474	758.78131	29.56054	-629.72046	-730.80231	-7.78711	500.71637	686.50604	-5.83447	586.72241	-30.57659	771.60583	-933.72375	
5295	52.940	-813.93774	24.69316	-636.99817	758.81647	28.75133	-629.97430	-730.75415	-7.13824	500.55780	686.55688	-5.18474	586.58893	-30.45815	770.48053	-935.10175	
5296	52.950	-813.87543	23.51301	-637.32343	758.77753	27.90832	-630.29120	-730.82837	-6.82277	500.36414	686.54706	-4.86770	586.35345	-30.72252	769.35022	-936.47772	
5297	52.960	-814.00684	22.82409	-637.56964	758.92285	27.06598	-630.49603	-730.77899	-6.51606	500.29214	686.57489	-4.26303	586.20325	-30.53381	768.06036	-937.80188	
5298	52.970	-813.82263	22.10921	-637.78558	759.00232	26.25167	-630.64636	-730.78455	-5.90828	499.96793	686.51013	-3.40466	586.09924	-30.30566	766.91858	-938.99683	
5299	52.980	-813.69879	21.59324	-637.87445	759.04803	25.60618	-630.85596	-730.68372	-5.10299	500.03571	686.59583	-2.70155	585.97864	-30.28394	765.87457	-940.02899	
5300	52.990	-813.56146	20.58598	-637.97382	759.00293	24.98259	-631.04865	-730.51038	-4.57038	499.89853	686.60620	-2.18831	585.86530	-30.27515	764.91748	-941.30066	
5301	53.000	-813.65643	19.82736	-638.28589	759.04608	24.36022	-631.10333	-730.42218	-4.16557	499.68011	686.61530	-1.70191	585.57098	-30.33768	763.93872	-942.23468	
5302	53.010	-813.56482	19.27823	-638.58319	759.32153	23.34467	-631.24329	-730.36719	-3.77304	499.20029	686.77484	-1.18083	585.41937	-30.22441	762.70538	-942.89777	
5303	53.020	-813.55182	18.48881	-638.79956	759.25592	22.61169	-631.73035	-730.45593	-3.19622	499.02026	686.73944	-0.39519	585.45148	-29.99709	761.66492	-943.62531	
5304	53.030	-813.16467	17.41107	-638.89154	758.99249	21.99208	-631.87122	-730.42548	-2.71574	498.85818	686.82013	0.20256	585.25452	-30.13299	760.48920	-944.34491	
